<svg width="60" height="61" viewBox="0 0 60 61" fill="none" xmlns="http://www.w3.org/2000/svg">
<path d="M59.6457 29.7621L55.5043 24.0231L56.2258 16.9855C56.3082 16.1803 55.8651 15.4131 55.1263 15.0826L48.6672 12.1927L45.7777 5.73324C45.4472 4.99484 44.68 4.55175 43.8753 4.63367L36.8344 5.35472L31.0968 1.21366C30.4413 0.741279 29.5578 0.741279 28.9022 1.21366L23.1646 5.35461L16.1251 4.63355C15.3236 4.55164 14.5532 4.99472 14.2227 5.73359L11.3338 12.1926L4.87428 15.0817C4.13541 15.4122 3.69185 16.1789 3.77424 16.9841L4.49529 24.0245L0.354698 29.7621C-0.118155 30.4172 -0.118155 31.3016 0.354229 31.9567L4.49565 37.6952L3.77506 44.7352C3.69267 45.5404 4.13623 46.3071 4.87463 46.6376L11.3327 49.5262L14.2226 55.9861C14.5532 56.7245 15.3236 57.1671 16.125 57.0857L23.1645 56.3651L28.9021 60.5051C29.2299 60.7412 29.6144 60.8594 29.9993 60.8594C30.3838 60.8594 30.7688 60.7412 31.0961 60.5051L36.8351 56.3651L43.8755 57.0852C44.6853 57.1671 45.4475 56.7241 45.778 55.9852L48.667 49.5271L55.126 46.6376C55.8644 46.307 56.308 45.5399 56.2256 44.7352L55.5046 37.6952L59.6455 31.9567C60.1181 31.3016 60.1181 30.4172 59.6457 29.7621Z" fill="#01BD39"/>
<path d="M15.8029 23.9648H10.3124C9.53554 23.9648 8.90613 24.5943 8.90613 25.3711V36.3483C8.90613 37.1251 9.53554 37.7546 10.3124 37.7546C11.0891 37.7546 11.7186 37.1251 11.7186 36.3483V32.2655H14.7033C15.4801 32.2655 16.1095 31.6356 16.1095 30.8592C16.1095 30.083 15.4801 29.453 14.7033 29.453H11.7186V26.7774H15.8029C16.5797 26.7774 17.2091 26.1479 17.2091 25.3711C17.2091 24.5943 16.5797 23.9648 15.8029 23.9648Z" fill="white"/>
<path d="M38.3935 26.7775C39.1703 26.777 39.7993 26.1471 39.7993 25.3703C39.7988 24.5939 39.1694 23.9648 38.393 23.9648H38.3926L32.9035 23.9663C32.1271 23.9667 31.4977 24.5961 31.4977 25.3725V36.351C31.4977 36.7235 31.6461 37.0817 31.9097 37.3453C32.1734 37.609 32.5308 37.7574 32.9041 37.7574H32.9045L38.3936 37.7555C39.1705 37.7555 39.7994 37.1256 39.7994 36.3488C39.7989 35.5724 39.1695 34.943 38.3932 34.943H38.3927L34.3103 34.9439V32.267L37.295 32.2665C38.0714 32.2661 38.7008 31.6367 38.7008 30.8598C38.7008 30.0835 38.0709 29.454 37.2945 29.454H37.294L34.3103 29.4545V26.7784L38.3935 26.7775Z" fill="white"/>
<path d="M49.6875 34.9431L45.6047 34.9436V32.267L48.5893 32.2665C49.3661 32.2661 49.9956 31.6367 49.9956 30.8598C49.9956 30.0835 49.3657 29.4536 48.5893 29.454L45.6047 29.4545V26.7784L49.6879 26.7775C50.4648 26.777 51.0942 26.1471 51.0937 25.3703C51.0933 24.5939 50.4638 23.9648 49.6875 23.9648H49.687L44.1979 23.9663C43.4216 23.9667 42.7921 24.5961 42.7921 25.3725V36.3497C42.7921 36.7227 42.9405 37.0809 43.2042 37.3445C43.4679 37.6082 43.8257 37.7561 44.1985 37.7561L49.6876 37.7556C50.4644 37.7556 51.0938 37.1257 51.0938 36.3494C51.0938 35.5725 50.4638 34.9431 49.6875 34.9431Z" fill="white"/>
<path d="M25.2773 32.2655H26.8223C27.5991 32.2655 28.2285 31.6356 28.2285 30.8592V25.3711C28.2285 24.5943 27.5991 23.9648 26.8223 23.9648H21.3341C20.5573 23.9648 19.9279 24.5943 19.9279 25.3711V36.3483C19.9279 37.1251 20.5573 37.7546 21.3341 37.7546C22.111 37.7546 22.7404 37.1251 22.7404 36.3483V33.7057L26.3773 37.3431C26.652 37.6178 27.0118 37.7547 27.3716 37.7547C27.7314 37.7547 28.0913 37.6173 28.366 37.3431C28.9154 36.7937 28.9154 35.9035 28.366 35.3542L25.2773 32.2655ZM22.7404 26.7774H25.416V29.453H22.7404V26.7774Z" fill="white"/>
</svg>
