<svg width="29" height="29" viewBox="0 0 29 29" fill="none" xmlns="http://www.w3.org/2000/svg">
<path d="M14.5 0.859375C22.1774 0.859375 28.5 7.18196 28.5 14.8594C28.5 22.5932 22.1774 28.8594 14.5 28.8594C6.76613 28.8594 0.5 22.5932 0.5 14.8594C0.5 7.18196 6.76613 0.859375 14.5 0.859375ZM14.5 3.56905C8.23387 3.56905 3.20968 8.6497 3.20968 14.8594C3.20968 21.1255 8.23387 26.1497 14.5 26.1497C20.7097 26.1497 25.7903 21.1255 25.7903 14.8594C25.7903 8.6497 20.7097 3.56905 14.5 3.56905ZM22.4032 10.9642C22.629 11.19 22.629 11.6416 22.4032 11.9239L12.6371 21.5771C12.3548 21.8594 11.9597 21.8594 11.6774 21.5771L6.54032 16.3836C6.31452 16.1578 6.31452 15.7061 6.54032 15.4239L7.83871 14.182C8.12097 13.8997 8.51613 13.8997 8.79839 14.182L12.1855 17.5691L20.1452 9.66583C20.4274 9.38357 20.879 9.38357 21.1048 9.66583L22.4032 10.9642Z" fill="#30C652"/>
</svg>
